<svg viewBox="0 0 800 500" preserveAspectRatio="none" xmlns="http://www.w3.org/2000/svg" xmlns:xlink="http://www.w3.org/1999/xlink" width="100%" id="blobSvg">
    <g transform="translate(154.10752868652344, 16.708513259887695)">
      <path class="blob" d="M446.5,279.5Q423,309,415,340.5Q407,372,377,385Q347,398,324.5,427.5Q302,457,266,471.5Q230,486,195,470.5Q160,455,144,418.5Q128,382,101.5,363.5Q75,345,56,315Q37,285,35,249.5Q33,214,56.5,186Q80,158,83.5,115.5Q87,73,126.5,65Q166,57,200,55Q234,53,266.5,54.5Q299,56,328,71.5Q357,87,392.5,99.5Q428,112,454.5,141.5Q481,171,475.5,210.5Q470,250,446.5,279.5Z" fill="#00cec9"></path>
    </g>
  </svg>